<!DOCTYPE svg PUBLIC "-//W3C//DTD SVG 1.1//EN" "http://www.w3.org/Graphics/SVG/1.1/DTD/svg11.dtd">
<!-- Uploaded to: SVG Repo, www.svgrepo.com, Transformed by: SVG Repo Mixer Tools -->
<svg fill="#E9E9E9" width="800px" height="800px" viewBox="-1.5 0 19 19" xmlns="http://www.w3.org/2000/svg" class="cf-icon-svg">

<g id="SVGRepo_bgCarrier" stroke-width="0"/>

<g id="SVGRepo_tracerCarrier" stroke-linecap="round" stroke-linejoin="round"/>

<g id="SVGRepo_iconCarrier">

<path d="M15.917 17.5H.083V1.666h15.834zM5.77 6.427a.96.96 0 0 0-1.032-.96.962.962 0 1 0-.025 1.92h.013a.963.963 0 0 0 1.044-.96zm-.123 1.719H3.803v5.552h1.845zm6.658 2.368c0-1.705-.91-2.5-2.125-2.5a1.832 1.832 0 0 0-1.663.917v-.786H6.67c.025.52 0 5.554 0 5.554h1.848v-3.102a1.264 1.264 0 0 1 .06-.45 1.011 1.011 0 0 1 .946-.676c.67 0 .936.51.936 1.256V13.7h1.846zm-3.8-1.564.013-.019v.019z"/>

</g>

</svg>