<!DOCTYPE svg PUBLIC "-//W3C//DTD SVG 1.1//EN" "http://www.w3.org/Graphics/SVG/1.1/DTD/svg11.dtd">
<!-- Uploaded to: SVG Repo, www.svgrepo.com, Transformed by: SVG Repo Mixer Tools -->
<svg fill="#DADADA" version="1.1" id="Layer_1" xmlns="http://www.w3.org/2000/svg" xmlns:xlink="http://www.w3.org/1999/xlink" viewBox="0 0 496 496" xml:space="preserve" width="800px" height="800px" stroke="#DADADA">
<g id="SVGRepo_bgCarrier" stroke-width="0"/>
<g id="SVGRepo_tracerCarrier" stroke-linecap="round" stroke-linejoin="round"/>
<g id="SVGRepo_iconCarrier"> <g> <g> <g> <path d="M160.968,37.656C157.376,34.064,152.4,32,147.312,32C136.664,32,128,40.664,128,51.312 c0,5.088,2.064,10.064,5.656,13.656l4.688,4.688l11.312-11.312l-4.688-4.688C144.352,53.04,144,52.184,144,51.312 c0-2.704,3.744-4.24,5.656-2.344l4.688,4.688l11.312-11.312L160.968,37.656z"/> <path d="M346.344,48.968c1.896-1.896,5.656-0.36,5.656,2.344c0,0.872-0.352,1.728-0.968,2.344l-4.688,4.688l11.312,11.312 l4.688-4.688C365.936,61.376,368,56.4,368,51.312C368,40.664,359.336,32,348.688,32c-5.088,0-10.064,2.064-13.656,5.656 l-4.688,4.688l11.312,11.312L346.344,48.968z"/> <path d="M184,136c13.232,0,24-10.768,24-24s-10.768-24-24-24s-24,10.768-24,24S170.768,136,184,136z M184,104 c4.416,0,8,3.584,8,8s-3.584,8-8,8s-8-3.584-8-8S179.584,104,184,104z"/> <path d="M312,136c13.232,0,24-10.768,24-24s-10.768-24-24-24s-24,10.768-24,24S298.768,136,312,136z M312,104 c4.416,0,8,3.584,8,8s-3.584,8-8,8c-4.416,0-8-3.584-8-8S307.584,104,312,104z"/> <path d="M278.016,218.064c-2.56,5.144-9.2,7.4-14.416,4.792l-1.68-0.84c-3.648-1.824-5.92-5.496-5.92-9.592v-13.608 c9.384-2.696,16-9.96,16-18.816c0-11.216-10.536-20-24-20s-24,8.784-24,20c0,8.856,6.608,16.12,16,18.816v13.608 c0,4.096-2.272,7.776-5.912,9.592l-1.704,0.848c-5.184,2.576-11.832,0.336-14.408-4.792l-2.824-5.648l-14.312,7.144l2.824,5.656 c4.552,9.112,13.72,14.776,23.912,14.776c4.12,0,8.248-0.976,11.936-2.816l1.712-0.848c2.56-1.28,4.808-2.952,6.776-4.88 c1.968,1.928,4.224,3.608,6.792,4.888l1.688,0.832c3.688,1.848,7.824,2.824,11.944,2.824c10.192,0,19.36-5.664,23.912-14.784 l2.816-5.648l-14.312-7.144L278.016,218.064z M248,184c-4.96,0-8-2.584-8-4s3.04-4,8-4s8,2.584,8,4S252.96,184,248,184z"/> <path d="M374.064,352c-9.48,0-18.368,3.28-25.712,9.04L336,348.688V328h44c24.256,0,44-19.744,44-44 c0-16.72-9.752-31.832-24.432-39.16c0.256-1.632,0.432-3.272,0.432-4.936c0-16.888-13.232-30.616-29.856-31.696 C381.472,188,388,164.76,388,140c0-17.76-3.352-35.104-9.984-51.672C391.584,79.592,400,64.488,400,48c0-26.472-21.528-48-48-48 c-14.208,0-27.688,6.504-36.736,17.352c-41.312-22.752-93.216-22.752-134.528,0C171.688,6.504,158.208,0,144,0 c-26.472,0-48,21.528-48,48c0,16.488,8.416,31.592,21.984,40.328C111.352,104.896,108,122.24,108,140 c0,24.76,6.528,48,17.856,68.208C109.232,209.288,96,223.016,96,239.904c0,1.656,0.176,3.304,0.432,4.928 C81.744,252.168,72,267.28,72,284c0,24.256,19.744,44,44,44h44v20.688l-12.352,12.352c-7.344-5.76-16.232-9.04-25.712-9.04 C98.816,352,80,370.816,80,393.936c0,11.2,4.36,21.736,12.28,29.656l60.128,60.128c7.92,7.92,18.456,12.28,29.656,12.28 c22.464,0,40.704-17.792,41.744-40H224c0-13.232,10.768-24,24-24s24,10.768,24,24h0.192c1.04,22.208,19.28,40,41.744,40 c11.2,0,21.736-4.36,29.656-12.28l60.128-60.128c7.92-7.92,12.28-18.456,12.28-29.656C416,370.816,397.184,352,374.064,352z M392.608,260.344c0.208-0.248,0.352-0.544,0.552-0.8C402.096,264.344,408,273.68,408,284c0,15.44-12.56,28-28,28h-55.856 C359.256,296.352,382.04,273.08,392.608,260.344z M124,140c0-17.92,3.864-35.384,11.496-51.896l3.448-7.464l-7.552-3.24 C119.608,72.344,112,60.808,112,48c0-17.648,14.352-32,32-32c11.392,0,21.68,5.984,27.528,16l4.152,7.112l6.984-4.352 C202.384,22.48,224.976,16,248,16s45.616,6.48,65.336,18.76l6.984,4.352L324.472,32C330.32,21.984,340.608,16,352,16 c17.648,0,32,14.352,32,32c0,12.808-7.608,24.344-19.392,29.4l-7.552,3.24l3.448,7.464C368.136,104.616,372,122.08,372,140 c0,46.976-26.256,87.928-64.864,108.96C315.224,237.328,320,223.216,320,208c0-39.704-32.296-72-72-72c-39.704,0-72,32.296-72,72 c0,15.216,4.776,29.328,12.864,40.96C150.256,227.928,124,186.976,124,140z M304,208c0,28.944-22.08,52.84-50.28,55.712 C251.808,263.8,249.928,264,248,264c-1.928,0-3.808-0.2-5.72-0.288C214.08,260.84,192,236.944,192,208c0-30.872,25.128-56,56-56 S304,177.128,304,208z M127.904,224H136v-0.36C161.552,257.776,202.176,280,248,280c45.816,0,86.44-22.224,112-56.36V224h8.096 c8.768,0,15.904,7.136,15.904,15.904c0,3.712-1.312,7.344-3.704,10.216c-15.44,18.6-59.208,61.864-132.52,61.864 c-0.008,0-0.016,0-0.024,0h-5.048l-2.168,4.544c-2.624,5.488-4.576,10.744-5.976,16.064c-1.76,6.72-7.84,11.408-14.784,11.408 c-5.208,0-10.064-2.616-12.976-7c-2.792-4.192-3.304-9.2-1.408-13.728c0.864-2.04,1.784-3.872,2.728-5.592l4.936-8.936 l-9.856-2.656c-47.72-12.832-77.088-43.408-87.496-55.96c-2.392-2.88-3.704-6.512-3.704-10.224 C112,231.136,119.136,224,127.904,224z M116,312c-15.44,0-28-12.56-28-28c0-10.32,5.904-19.656,14.84-24.456 c0.2,0.256,0.344,0.544,0.552,0.8c9.28,11.192,32.392,35.464,68.856,51.656H116z M182.064,480 c-6.928,0-13.448-2.696-18.344-7.592l-60.128-60.128C98.696,407.384,96,400.864,96,393.936C96,379.632,107.632,368,121.936,368 c6.928,0,13.448,2.696,18.344,7.592l60.128,60.128c4.896,4.896,7.592,11.416,7.592,18.344C208,468.368,196.368,480,182.064,480z M284.28,424.416c-2.024,2.024-3.8,4.224-5.344,6.552C271.6,421.912,260.528,416,248,416s-23.6,5.912-30.936,14.96 c-1.544-2.328-3.32-4.528-5.344-6.552L159.312,372L176,355.312v-41.776c4.504,1.88,9.08,3.72,13.968,5.304 c-3.128,8.976-1.864,18.936,3.504,27.016c5.88,8.856,15.712,14.144,26.304,14.144c14.216,0,26.664-9.6,30.256-23.344 c0.76-2.88,1.736-5.768,2.936-8.72c12.512-0.312,24.136-1.872,35.032-4.208V360h16v-40.376c5.6-1.744,10.896-3.728,16-5.856 v41.552l16.688,16.688L284.28,424.416z M392.408,412.28l-60.128,60.128c-4.896,4.896-11.416,7.592-18.344,7.592 C299.632,480,288,468.368,288,454.064c0-6.928,2.696-13.448,7.592-18.344l60.128-60.128c4.896-4.896,11.416-7.592,18.344-7.592 C388.368,368,400,379.632,400,393.936C400,400.864,397.304,407.384,392.408,412.28z"/> <rect x="288" y="376" width="16" height="16"/> </g> </g> </g> </g>
</svg>